<?xml version="1.0" encoding="UTF-8" standalone="no"?><svg xmlns="http://www.w3.org/2000/svg" xmlns:xlink="http://www.w3.org/1999/xlink" contentScriptType="application/ecmascript" contentStyleType="text/css" height="978px" preserveAspectRatio="none" style="width:1236px;height:978px;" version="1.1" viewBox="0 0 1236 978" width="1236px" zoomAndPan="magnify"><defs/><g><!--entity _App--><rect fill="#F8F8F8" height="34.4844" rx="2" ry="2" style="stroke: #000000; stroke-width: 0.5;" width="41" x="249" y="383"/><text fill="#000000" font-family="Tahoma, sans-serif" font-size="12" lengthAdjust="spacingAndGlyphs" textLength="21" x="259" y="405.0059">App</text><ellipse cx="168.598" cy="400.242" fill="#F8F8F8" rx="42.598" ry="13.242" style="stroke: #383838; stroke-width: 0.5;"/><text fill="#000000" font-family="Tahoma, sans-serif" font-size="12" lengthAdjust="spacingAndGlyphs" textLength="56" x="140.598" y="403.9842">App/index</text><ellipse cx="884.5624" cy="284.242" fill="#F8F8F8" rx="39.0624" ry="13.242" style="stroke: #383838; stroke-width: 0.5;"/><text fill="#000000" font-family="Tahoma, sans-serif" font-size="12" lengthAdjust="spacingAndGlyphs" textLength="51" x="859.0624" y="287.9842">AppState</text><!--entity _Component--><rect fill="#F8F8F8" height="34.4844" rx="2" ry="2" style="stroke: #000000; stroke-width: 0.5;" width="87" x="841" y="677"/><text fill="#000000" font-family="Tahoma, sans-serif" font-size="12" lengthAdjust="spacingAndGlyphs" textLength="67" x="851" y="699.0059">Component</text><ellipse cx="1157.433" cy="574.0866" fill="#F8F8F8" rx="68.433" ry="16.0866" style="stroke: #383838; stroke-width: 0.5;"/><text fill="#000000" font-family="Tahoma, sans-serif" font-size="12" lengthAdjust="spacingAndGlyphs" textLength="109" x="1102.933" y="577.8288">ComponentFactory</text><!--entity _CurrentWeather--><rect fill="#F8F8F8" height="34.4844" rx="2" ry="2" style="stroke: #000000; stroke-width: 0.5;" width="108" x="587.5" y="281"/><text fill="#000000" font-family="Tahoma, sans-serif" font-size="12" lengthAdjust="spacingAndGlyphs" textLength="88" x="597.5" y="303.0059">CurrentWeather</text><ellipse cx="418.3686" cy="367.7737" fill="#F8F8F8" rx="74.3686" ry="17.2737" style="stroke: #383838; stroke-width: 0.5;"/><text fill="#000000" font-family="Tahoma, sans-serif" font-size="12" lengthAdjust="spacingAndGlyphs" textLength="123" x="356.8686" y="371.5159">CurrentWeather/index</text><!--entity _FavouriteLocations--><rect fill="#F8F8F8" height="34.4844" rx="2" ry="2" style="stroke: #000000; stroke-width: 0.5;" width="129" x="577" y="686"/><text fill="#000000" font-family="Tahoma, sans-serif" font-size="12" lengthAdjust="spacingAndGlyphs" textLength="109" x="587" y="708.0059">FavouriteLocations</text><ellipse cx="641.4726" cy="644.7945" fill="#F8F8F8" rx="94.4726" ry="21.2945" style="stroke: #383838; stroke-width: 0.5;"/><text fill="#000000" font-family="Tahoma, sans-serif" font-size="12" font-weight="bold" lengthAdjust="spacingAndGlyphs" textLength="168" x="557.4726" y="648.5367">FavouriteLocations/index</text><ellipse cx="884.6274" cy="473.242" fill="#F8F8F8" rx="25.6274" ry="13.242" style="stroke: #383838; stroke-width: 0.5;"/><text fill="#000000" font-family="Tahoma, sans-serif" font-size="12" lengthAdjust="spacingAndGlyphs" textLength="32" x="868.6274" y="476.9842">icons</text><ellipse cx="47.1838" cy="400.242" fill="#F8F8F8" rx="41.1838" ry="13.242" style="stroke: #383838; stroke-width: 0.5;"/><text fill="#000000" font-family="Tahoma, sans-serif" font-size="12" font-weight="bold" lengthAdjust="spacingAndGlyphs" textLength="54" x="20.1838" y="403.9842">js/index</text><ellipse cx="1022.4558" cy="713.242" fill="#F8F8F8" rx="28.4558" ry="13.242" style="stroke: #383838; stroke-width: 0.5;"/><text fill="#000000" font-family="Tahoma, sans-serif" font-size="12" lengthAdjust="spacingAndGlyphs" textLength="36" x="1004.4558" y="716.9842">parser</text><!--entity _Router--><rect fill="#F8F8F8" height="34.4844" rx="2" ry="2" style="stroke: #000000; stroke-width: 0.5;" width="63" x="15.5" y="289"/><text fill="#000000" font-family="Tahoma, sans-serif" font-size="12" font-weight="bold" lengthAdjust="spacingAndGlyphs" textLength="43" x="25.5" y="311.0059">Router</text><ellipse cx="46.9056" cy="355.242" fill="#F8F8F8" rx="33.4056" ry="13.242" style="stroke: #383838; stroke-width: 0.5;"/><text fill="#000000" font-family="Tahoma, sans-serif" font-size="12" font-weight="bold" lengthAdjust="spacingAndGlyphs" textLength="43" x="25.4056" y="358.9842">routes</text><!--entity _SearchBar--><rect fill="#F8F8F8" height="34.4844" rx="2" ry="2" style="stroke: #000000; stroke-width: 0.5;" width="79" x="602" y="108"/><text fill="#000000" font-family="Tahoma, sans-serif" font-size="12" lengthAdjust="spacingAndGlyphs" textLength="59" x="612" y="130.0059">SearchBar</text><ellipse cx="418.3315" cy="211.8663" fill="#F8F8F8" rx="62.3315" ry="14.8663" style="stroke: #383838; stroke-width: 0.5;"/><text fill="#000000" font-family="Tahoma, sans-serif" font-size="12" lengthAdjust="spacingAndGlyphs" textLength="94" x="371.3315" y="215.6085">SearchBar/index</text><!--entity _SearchHistory--><rect fill="#F8F8F8" height="34.4844" rx="2" ry="2" style="stroke: #000000; stroke-width: 0.5;" width="100" x="591.5" y="833"/><text fill="#000000" font-family="Tahoma, sans-serif" font-size="12" lengthAdjust="spacingAndGlyphs" textLength="80" x="601.5" y="855.0059">SearchHistory</text><ellipse cx="641.6593" cy="796.2319" fill="#F8F8F8" rx="79.1593" ry="18.2319" style="stroke: #383838; stroke-width: 0.5;"/><text fill="#000000" font-family="Tahoma, sans-serif" font-size="12" font-weight="bold" lengthAdjust="spacingAndGlyphs" textLength="134" x="574.6593" y="799.974">SearchHistory/index</text><ellipse cx="168.3909" cy="306.242" fill="#F8F8F8" rx="41.8909" ry="13.242" style="stroke: #383838; stroke-width: 0.5;"/><text fill="#000000" font-family="Tahoma, sans-serif" font-size="12" font-weight="bold" lengthAdjust="spacingAndGlyphs" textLength="55" x="140.8909" y="309.9842">skycons</text><ellipse cx="168.3848" cy="351.242" fill="#F8F8F8" rx="21.3848" ry="13.242" style="stroke: #383838; stroke-width: 0.5;"/><text fill="#000000" font-family="Tahoma, sans-serif" font-size="12" font-weight="bold" lengthAdjust="spacingAndGlyphs" textLength="26" x="155.3848" y="354.9842">test</text><ellipse cx="884.3757" cy="196.1751" fill="#F8F8F8" rx="71.3757" ry="16.6751" style="stroke: #383838; stroke-width: 0.5;"/><text fill="#000000" font-family="Tahoma, sans-serif" font-size="12" lengthAdjust="spacingAndGlyphs" textLength="116" x="826.3757" y="199.9173">WeatherDataService</text><ellipse cx="641.5267" cy="467.1053" fill="#F8F8F8" rx="63.5267" ry="15.1053" style="stroke: #383838; stroke-width: 0.5;"/><text fill="#000000" font-family="Tahoma, sans-serif" font-size="12" lengthAdjust="spacingAndGlyphs" textLength="97" x="593.0267" y="470.8475">WeatherForecast</text><ellipse cx="418.281" cy="432.0562" fill="#F8F8F8" rx="78.281" ry="18.0562" style="stroke: #383838; stroke-width: 0.5;"/><text fill="#000000" font-family="Tahoma, sans-serif" font-size="12" lengthAdjust="spacingAndGlyphs" textLength="132" x="352.281" y="435.7984">WeatherForecast/index</text><!--entity _WeatherForecastItem--><rect fill="#F8F8F8" height="34.4844" rx="2" ry="2" style="stroke: #000000; stroke-width: 0.5;" width="144" x="569.5" y="570"/><text fill="#000000" font-family="Tahoma, sans-serif" font-size="12" lengthAdjust="spacingAndGlyphs" textLength="124" x="579.5" y="592.0059">WeatherForecastItem</text><ellipse cx="418.3584" cy="515.9717" fill="#F8F8F8" rx="90.3584" ry="20.4717" style="stroke: #383838; stroke-width: 0.5;"/><text fill="#000000" font-family="Tahoma, sans-serif" font-size="12" lengthAdjust="spacingAndGlyphs" textLength="159" x="338.8584" y="519.7139">WeatherForecastItem/index</text><!--entity _Wind--><rect fill="#F8F8F8" height="34.4844" rx="2" ry="2" style="stroke: #000000; stroke-width: 0.5;" width="48" x="617.5" y="933"/><text fill="#000000" font-family="Tahoma, sans-serif" font-size="12" lengthAdjust="spacingAndGlyphs" textLength="28" x="627.5" y="955.0059">Wind</text><ellipse cx="641.4148" cy="899.783" fill="#F8F8F8" rx="54.4148" ry="13.283" style="stroke: #383838; stroke-width: 0.5;"/><text fill="#000000" font-family="Tahoma, sans-serif" font-size="12" font-weight="bold" lengthAdjust="spacingAndGlyphs" textLength="73" x="604.9148" y="903.5251">Wind/index</text><!--link _App to _Component--><path d="M274.296,417.089 C281.282,445.804 298.251,504.646 328,546 C402.238,649.199 427.553,686.482 547,730 C645.055,765.724 769.036,734.544 835.762,712.103 " fill="none" id="_App-_Component" style="stroke: #000000; stroke-width: 0.55;"/><polygon fill="#000000" points="840.859,710.368,831.0501,709.4822,836.1258,711.9795,833.6285,717.0553,840.859,710.368" style="stroke: #000000; stroke-width: 0.55;"/><!--link _App to ComponentFactory--><path d="M270.855,382.968 C272.493,344.303 281.33,248.566 328,188 C425.832,61.039 480.219,8 640.5,8 C640.5,8 640.5,8 885.5,8 C1131.94,8 1154.45,449.908 1156.36,552.781 " fill="none" id="_App-ComponentFactory" style="stroke: #000000; stroke-width: 0.55;"/><polygon fill="#000000" points="1156.44,557.972,1160.2955,548.9092,1156.36,552.9726,1152.2965,549.0371,1156.44,557.972" style="stroke: #000000; stroke-width: 0.55;"/><!--link _App to CurrentWeather/index--><path d="M290.02,395.751 C307.447,391.957 333.895,386.2 358.193,380.91 " fill="none" id="_App-CurrentWeather/index" style="stroke: #000000; stroke-width: 0.55;"/><polygon fill="#000000" points="363.341,379.79,353.6964,377.7946,358.4553,380.8529,355.397,385.6117,363.341,379.79" style="stroke: #000000; stroke-width: 0.55;"/><!--link _App to SearchBar/index--><path d="M283.805,382.985 C311.242,347.895 373.936,267.714 402.647,230.996 " fill="none" id="_App-SearchBar/index" style="stroke: #000000; stroke-width: 0.55;"/><polygon fill="#000000" points="405.975,226.74,397.2799,231.3655,402.8949,230.6787,403.5818,236.2937,405.975,226.74" style="stroke: #000000; stroke-width: 0.55;"/><!--link _App to WeatherForecast/index--><path d="M290.02,404.249 C306.936,407.932 332.354,413.465 356.053,418.624 " fill="none" id="_App-WeatherForecast/index" style="stroke: #000000; stroke-width: 0.55;"/><polygon fill="#000000" points="361.08,419.718,353.136,413.8963,356.1943,418.6551,351.4354,421.7134,361.08,419.718" style="stroke: #000000; stroke-width: 0.55;"/><!--link _App to WeatherForecastItem/index--><path d="M284.864,417.141 C295.929,429.785 311.995,446.981 328,460 C343.596,472.687 362.258,484.783 378.496,494.465 " fill="none" id="_App-WeatherForecastItem/index" style="stroke: #000000; stroke-width: 0.55;"/><polygon fill="#000000" points="383.007,497.13,377.2928,489.1083,378.7021,494.5868,373.2236,495.9961,383.007,497.13" style="stroke: #000000; stroke-width: 0.55;"/><!--link App/index to _App--><path d="M211.198,400 C222.256,400 233.846,400 243.687,400 " fill="none" id="App/index-_App" style="stroke: #000000; stroke-width: 0.55;"/><polygon fill="#000000" points="248.959,400,239.959,396,243.959,400,239.959,404,248.959,400" style="stroke: #000000; stroke-width: 0.55;"/><!--link _Component to ComponentFactory--><path d="M928.326,685.505 C962.557,677.798 1011.22,664.755 1051,646 C1081.65,631.549 1113.3,608.695 1133.84,592.62 " fill="none" id="_Component-ComponentFactory" style="stroke: #000000; stroke-width: 0.55;"/><polygon fill="#000000" points="1137.79,589.5,1128.2478,591.9384,1133.866,592.5987,1133.2057,598.2169,1137.79,589.5" style="stroke: #000000; stroke-width: 0.55;"/><!--link _Component to parser--><path d="M928.158,699.96 C948.095,702.745 971.424,706.004 989.772,708.567 " fill="none" id="_Component-parser" style="stroke: #000000; stroke-width: 0.55;"/><polygon fill="#000000" points="994.808,709.271,986.4477,704.0647,989.856,708.5795,985.3413,711.9879,994.808,709.271" style="stroke: #000000; stroke-width: 0.55;"/><!--link _CurrentWeather to AppState--><path d="M695.687,294.91 C739.2,292.383 799.954,288.853 840.453,286.501 " fill="none" id="_CurrentWeather-AppState" style="stroke: #000000; stroke-width: 0.55;"/><polygon fill="#000000" points="845.782,286.191,836.5651,282.7198,840.7904,286.481,837.0292,290.7063,845.782,286.191" style="stroke: #000000; stroke-width: 0.55;"/><!--link _CurrentWeather to _Component--><path d="M653.961,315.262 C671.828,342.286 707.255,396.327 736,443 C787.658,526.877 846.152,628.522 871.131,672.264 " fill="none" id="_CurrentWeather-_Component" style="stroke: #000000; stroke-width: 0.55;"/><polygon fill="#000000" points="873.727,676.811,872.7399,667.0117,871.2486,672.4685,865.7919,670.9771,873.727,676.811" style="stroke: #000000; stroke-width: 0.55;"/><!--link _CurrentWeather to ComponentFactory--><path d="M678.951,280.863 C740.251,254.742 866.085,212.901 956,262 C1074.21,326.551 1133.11,493.934 1150.7,552.992 " fill="none" id="_CurrentWeather-ComponentFactory" style="stroke: #000000; stroke-width: 0.55;"/><polygon fill="#000000" points="1152.18,558.037,1153.4866,548.2752,1150.7734,553.2389,1145.8097,550.5257,1152.18,558.037" style="stroke: #000000; stroke-width: 0.55;"/><!--link _CurrentWeather to icons--><path d="M695.513,309.889 C721.042,317.277 751.199,328.567 775,345 C819.417,375.667 856.375,428.992 873.404,456.114 " fill="none" id="_CurrentWeather-icons" style="stroke: #000000; stroke-width: 0.55;"/><polygon fill="#000000" points="876.157,460.548,874.8077,450.792,873.5195,456.3002,868.0112,455.0121,876.157,460.548" style="stroke: #000000; stroke-width: 0.55;"/><!--link _CurrentWeather to WeatherDataService--><path d="M670.418,280.97 C696.498,265.592 736.873,243.12 774,228 C791.772,220.762 811.777,214.419 829.779,209.33 " fill="none" id="_CurrentWeather-WeatherDataService" style="stroke: #000000; stroke-width: 0.55;"/><polygon fill="#000000" points="834.8,207.929,825.0555,206.4988,829.9845,209.2747,827.2086,214.2036,834.8,207.929" style="stroke: #000000; stroke-width: 0.55;"/><!--link CurrentWeather/index to _CurrentWeather--><path d="M463.691,354.003 C497.807,343.197 545.305,328.152 582.481,316.377 " fill="none" id="CurrentWeather/index-_CurrentWeather" style="stroke: #000000; stroke-width: 0.55;"/><polygon fill="#000000" points="587.423,314.812,577.6353,313.7164,582.6564,316.3218,580.051,321.343,587.423,314.812" style="stroke: #000000; stroke-width: 0.55;"/><!--link _FavouriteLocations to _Component--><path d="M706.135,700.624 C746.675,699.11 798.357,697.18 835.46,695.794 " fill="none" id="_FavouriteLocations-_Component" style="stroke: #000000; stroke-width: 0.55;"/><polygon fill="#000000" points="840.825,695.594,831.6826,691.9311,835.8285,695.7797,831.9798,699.9256,840.825,695.594" style="stroke: #000000; stroke-width: 0.55;"/><!--link <b>FavouriteLocations/index</b> to _FavouriteLocations--><path d="M641.5,666.665 C641.5,671.345 641.5,676.024 641.5,680.704 " fill="none" id="&lt;b&gt;FavouriteLocations/index&lt;/b&gt;-_FavouriteLocations" style="stroke: #000000; stroke-width: 1.0;"/><polygon fill="#000000" points="641.5,685.781,645.5,676.781,641.5,680.781,637.5,676.781,641.5,685.781" style="stroke: #000000; stroke-width: 1.0;"/><!--link <b>js/index</b> to App/index--><path d="M88.1242,400 C98.4962,400 109.756,400 120.447,400 " fill="none" id="&lt;b&gt;js/index&lt;/b&gt;-App/index" style="stroke: #000000; stroke-width: 1.0;"/><polygon fill="#000000" points="125.643,400,116.643,396,120.643,400,116.643,404,125.643,400" style="stroke: #000000; stroke-width: 1.0;"/><!--link parser to ComponentFactory--><path d="M1035.05,701.326 C1039.98,696.318 1045.79,690.39 1051,685 C1081.73,653.189 1117.08,615.843 1138.06,593.592 " fill="none" id="parser-ComponentFactory" style="stroke: #000000; stroke-width: 0.55;"/><polygon fill="#000000" points="1141.56,589.886,1132.4781,593.6965,1138.1324,593.5263,1138.3026,599.1806,1141.56,589.886" style="stroke: #000000; stroke-width: 0.55;"/><!--link _SearchBar to AppState--><path d="M681.116,123.683 C709.612,124.612 747.972,130.051 775,150 C804.112,171.487 790.6,193.584 813,222 C827.388,240.253 847.621,257.408 862.723,269.025 " fill="none" id="_SearchBar-AppState" style="stroke: #000000; stroke-width: 0.55;"/><polygon fill="#000000" points="866.837,272.151,862.0916,263.5207,862.8561,269.1257,857.2511,269.8902,866.837,272.151" style="stroke: #000000; stroke-width: 0.55;"/><!--link _SearchBar to _Component--><path d="M655.434,142.315 C674.934,169.029 712.116,222.404 736,272 C781.677,366.848 778.232,396.634 813,496 C835.34,559.849 862.295,635.056 875.466,671.688 " fill="none" id="_SearchBar-_Component" style="stroke: #000000; stroke-width: 0.55;"/><polygon fill="#000000" points="877.307,676.807,878.0233,666.9842,875.614,672.1023,870.4959,669.693,877.307,676.807" style="stroke: #000000; stroke-width: 0.55;"/><!--link _SearchBar to ComponentFactory--><path d="M681.284,114.502 C707.29,108.018 742.43,100.324 774,97 C860.674,87.875 887.618,115.966 956,170 C1087.13,273.616 1138.98,485.287 1152.59,552.805 " fill="none" id="_SearchBar-ComponentFactory" style="stroke: #000000; stroke-width: 0.55;"/><polygon fill="#000000" points="1153.58,557.784,1155.7507,548.1773,1152.6063,552.8797,1147.9039,549.7353,1153.58,557.784" style="stroke: #000000; stroke-width: 0.55;"/><!--link _SearchBar to WeatherDataService--><path d="M681.185,112.328 C708.155,105.541 744.606,100.512 775,111 C812.053,123.786 846.111,155.01 865.836,175.842 " fill="none" id="_SearchBar-WeatherDataService" style="stroke: #000000; stroke-width: 0.55;"/><polygon fill="#000000" points="869.35,179.604,866.1304,170.2963,865.9372,175.9498,860.2837,175.7567,869.35,179.604" style="stroke: #000000; stroke-width: 0.55;"/><!--link SearchBar/index to _SearchBar--><path d="M452.109,199.163 C490.493,184.053 554.388,158.899 596.973,142.135 " fill="none" id="SearchBar/index-_SearchBar" style="stroke: #000000; stroke-width: 0.55;"/><polygon fill="#000000" points="601.799,140.235,591.9593,139.8093,597.1464,142.0663,594.8894,147.2534,601.799,140.235" style="stroke: #000000; stroke-width: 0.55;"/><!--link _SearchHistory to _Component--><path d="M691.675,840.757 C706.465,836.824 722.373,831.388 736,824 C789.197,795.157 839.451,743.919 865.327,715.135 " fill="none" id="_SearchHistory-_Component" style="stroke: #000000; stroke-width: 0.55;"/><polygon fill="#000000" points="868.965,711.056,859.9898,715.1114,865.6374,714.7879,865.9609,720.4355,868.965,711.056" style="stroke: #000000; stroke-width: 0.55;"/><!--link <b>SearchHistory/index</b> to _SearchHistory--><path d="M641.5,814.065 C641.5,818.53 641.5,822.996 641.5,827.461 " fill="none" id="&lt;b&gt;SearchHistory/index&lt;/b&gt;-_SearchHistory" style="stroke: #000000; stroke-width: 1.0;"/><polygon fill="#000000" points="641.5,832.703,645.5,823.703,641.5,827.703,637.5,823.703,641.5,832.703" style="stroke: #000000; stroke-width: 1.0;"/><!--link WeatherForecast to AppState--><path d="M683.307,455.633 C710.904,446.664 747.239,432.265 775,412 C818.151,380.501 855.159,328.444 872.68,301.448 " fill="none" id="WeatherForecast-AppState" style="stroke: #000000; stroke-width: 0.55;"/><polygon fill="#000000" points="875.523,297.023,867.2922,302.4317,872.8198,301.2293,874.0222,306.7568,875.523,297.023" style="stroke: #000000; stroke-width: 0.55;"/><!--link WeatherForecast to _Component--><path d="M657.942,481.545 C699.372,520.568 813.101,627.691 861.37,673.155 " fill="none" id="WeatherForecast-_Component" style="stroke: #000000; stroke-width: 0.55;"/><polygon fill="#000000" points="865.282,676.841,861.475,667.7577,861.643,673.412,855.9887,673.5801,865.282,676.841" style="stroke: #000000; stroke-width: 0.55;"/><!--link WeatherForecast to ComponentFactory--><path d="M689.935,476.875 C785.128,496.691 999.015,541.216 1100.73,562.389 " fill="none" id="WeatherForecast-ComponentFactory" style="stroke: #000000; stroke-width: 0.55;"/><polygon fill="#000000" points="1105.78,563.441,1097.7786,557.6983,1100.884,562.4266,1096.1557,565.532,1105.78,563.441" style="stroke: #000000; stroke-width: 0.55;"/><!--link WeatherForecast to icons--><path d="M704.877,468.553 C752.732,469.744 816.669,471.336 853.64,472.257 " fill="none" id="WeatherForecast-icons" style="stroke: #000000; stroke-width: 0.55;"/><polygon fill="#000000" points="858.894,472.387,849.9962,468.1645,853.8955,472.2627,849.7974,476.1621,858.894,472.387" style="stroke: #000000; stroke-width: 0.55;"/><!--link WeatherForecast to WeatherDataService--><path d="M653.889,452.053 C680.463,417.464 749.165,329.694 813,262 C828.456,245.61 847.109,228.243 861.345,215.44 " fill="none" id="WeatherForecast-WeatherDataService" style="stroke: #000000; stroke-width: 0.55;"/><polygon fill="#000000" points="865.237,211.954,855.8636,214.9772,861.5119,215.2892,861.1999,220.9374,865.237,211.954" style="stroke: #000000; stroke-width: 0.55;"/><!--link WeatherForecast/index to WeatherForecast--><path d="M483.422,442.123 C514.875,447.105 552.49,453.062 583.025,457.898 " fill="none" id="WeatherForecast/index-WeatherForecast" style="stroke: #000000; stroke-width: 0.55;"/><polygon fill="#000000" points="588.251,458.725,579.9867,453.3676,583.3124,457.9436,578.7365,461.2693,588.251,458.725" style="stroke: #000000; stroke-width: 0.55;"/><!--link _WeatherForecastItem to _Component--><path d="M713.696,604.124 C721.411,606.982 728.995,610.259 736,614 C755.476,624.401 755.252,634.337 774,646 C793.335,658.028 816.207,668.562 836.035,676.674 " fill="none" id="_WeatherForecastItem-_Component" style="stroke: #000000; stroke-width: 0.55;"/><polygon fill="#000000" points="840.741,678.578,833.8965,671.4961,836.1055,676.7038,830.8978,678.9128,840.741,678.578" style="stroke: #000000; stroke-width: 0.55;"/><!--link _WeatherForecastItem to ComponentFactory--><path d="M713.699,585.199 C811.315,582.73 985.757,578.318 1084.03,575.833 " fill="none" id="_WeatherForecastItem-ComponentFactory" style="stroke: #000000; stroke-width: 0.55;"/><polygon fill="#000000" points="1089.23,575.701,1080.1301,571.9337,1084.2317,575.8296,1080.3358,579.9311,1089.23,575.701" style="stroke: #000000; stroke-width: 0.55;"/><!--link _WeatherForecastItem to icons--><path d="M678.58,569.933 C728.902,546.129 818.698,503.653 860.683,483.793 " fill="none" id="_WeatherForecastItem-icons" style="stroke: #000000; stroke-width: 0.55;"/><polygon fill="#000000" points="865.319,481.6,855.4729,481.8334,860.7994,483.7384,858.8944,489.0648,865.319,481.6" style="stroke: #000000; stroke-width: 0.55;"/><!--link WeatherForecastItem/index to _WeatherForecastItem--><path d="M471.594,532.736 C504.799,543.404 547.878,557.244 582.219,568.276 " fill="none" id="WeatherForecastItem/index-_WeatherForecastItem" style="stroke: #000000; stroke-width: 0.55;"/><polygon fill="#000000" points="587.221,569.883,579.875,563.3228,582.4604,568.3542,577.429,570.9397,587.221,569.883" style="stroke: #000000; stroke-width: 0.55;"/><!--link _Wind to _Component--><path d="M665.657,947.9006 C685.916,945.0644 715.263,938.4348 736,923 C810.851,867.2878 857.942,761.419 875.6,715.805 " fill="none" id="_Wind-_Component" style="stroke: #000000; stroke-width: 0.55;"/><polygon fill="#000000" points="877.412,711.064,870.4614,718.0418,875.6262,715.7342,877.9337,720.899,877.412,711.064" style="stroke: #000000; stroke-width: 0.55;"/><!--link _Wind to ComponentFactory--><path d="M665.74,945.0327 C685.012,940.5048 712.896,932.9987 736,923 C885.419,858.336 933.511,848.711 1051,736 C1095.78,693.037 1130.91,627.621 1146.97,594.602 " fill="none" id="_Wind-ComponentFactory" style="stroke: #000000; stroke-width: 0.55;"/><polygon fill="#000000" points="1149.2,589.972,1141.6878,596.3412,1147.0282,594.4757,1148.8937,599.8161,1149.2,589.972" style="stroke: #000000; stroke-width: 0.55;"/><!--link <b>Wind/index</b> to _Wind--><path d="M641.5,913.5864 C641.5,918.2928 641.5,922.9992 641.5,927.7056 " fill="none" id="&lt;b&gt;Wind/index&lt;/b&gt;-_Wind" style="stroke: #000000; stroke-width: 1.0;"/><polygon fill="#000000" points="641.5,932.8125,645.5,923.8125,641.5,927.8125,637.5,923.8125,641.5,932.8125" style="stroke: #000000; stroke-width: 1.0;"/><!--link _Router to <b>routes</b>--><!--link _Router to <b>skycons</b>--><!--link <b>skycons</b> to <b>test</b>--><script type="text/plantuml"><![CDATA[
@startuml

scale max 1920 width
left to right direction

skinparam nodesep 19
skinparam ranksep 38
skinparam monochrome true
skinparam shadowing false
skinparam defaultFontName Tahoma
skinparam defaultFontSize 12
skinparam roundCorner 4
skinparam dpi 150
skinparam arrowColor black
skinparam arrowThickness 0.55
skinparam packageTitleAlignment left

skinparam usecase {
  borderThickness 0.5
}

skinparam rectangle {
  borderThickness 0.5
}

skinparam component {
  borderThickness 1
}


rectangle "App" as _App
(App/index)
(AppState)
rectangle "Component" as _Component
(ComponentFactory)
rectangle "CurrentWeather" as _CurrentWeather
(CurrentWeather/index)
rectangle "FavouriteLocations" as _FavouriteLocations
(<b>FavouriteLocations/index</b>)
(icons)
(<b>js/index</b>)
(parser)
rectangle "<b>Router</b>" as _Router
(<b>routes</b>)
rectangle "SearchBar" as _SearchBar
(SearchBar/index)
rectangle "SearchHistory" as _SearchHistory
(<b>SearchHistory/index</b>)
(<b>skycons</b>)
(<b>test</b>)
(WeatherDataService)
(WeatherForecast)
(WeatherForecast/index)
rectangle "WeatherForecastItem" as _WeatherForecastItem
(WeatherForecastItem/index)
rectangle "Wind" as _Wind
(<b>Wind/index</b>)


_App ---> _Component
_App ---> (ComponentFactory)
_App --> (CurrentWeather/index)
_App --> (SearchBar/index)
_App --> (WeatherForecast/index)
_App --> (WeatherForecastItem/index)
(App/index) --> _App
_Component --> (ComponentFactory)
_Component --> (parser)
_CurrentWeather ---> (AppState)
_CurrentWeather ---> _Component
_CurrentWeather ---> (ComponentFactory)
_CurrentWeather ---> (icons)
_CurrentWeather ---> (WeatherDataService)
(CurrentWeather/index) --> _CurrentWeather
_FavouriteLocations ---> _Component
(<b>FavouriteLocations/index</b>) -[thickness=1]> _FavouriteLocations
(<b>js/index</b>) --[thickness=1]> (App/index)
(parser) --> (ComponentFactory)
_SearchBar ---> (AppState)
_SearchBar ---> _Component
_SearchBar ---> (ComponentFactory)
_SearchBar ---> (WeatherDataService)
(SearchBar/index) --> _SearchBar
_SearchHistory ---> _Component
(<b>SearchHistory/index</b>) -[thickness=1]> _SearchHistory
(WeatherForecast) ---> (AppState)
(WeatherForecast) ---> _Component
(WeatherForecast) ---> (ComponentFactory)
(WeatherForecast) ---> (icons)
(WeatherForecast) ---> (WeatherDataService)
(WeatherForecast/index) --> (WeatherForecast)
_WeatherForecastItem ---> _Component
_WeatherForecastItem ---> (ComponentFactory)
_WeatherForecastItem ---> (icons)
(WeatherForecastItem/index) --> _WeatherForecastItem
_Wind ---> _Component
_Wind ---> (ComponentFactory)
(<b>Wind/index</b>) -[thickness=1]> _Wind

@enduml


' View and edit on https://arkit.pro
]]></script></g></svg>