<?xml version="1.0" encoding="UTF-8" standalone="no"?><svg xmlns="http://www.w3.org/2000/svg" xmlns:xlink="http://www.w3.org/1999/xlink" contentScriptType="application/ecmascript" contentStyleType="text/css" height="1165px" preserveAspectRatio="none" style="width:1690px;height:1165px;" version="1.1" viewBox="0 0 1690 1165" width="1690px" zoomAndPan="magnify"><defs/><g><!--entity _App--><rect fill="#F8F8F8" height="34.4844" rx="2" ry="2" style="stroke: #000000; stroke-width: 0.5;" width="41" x="261" y="262"/><text fill="#000000" font-family="Tahoma, sans-serif" font-size="12" lengthAdjust="spacingAndGlyphs" textLength="21" x="271" y="284.0059">App</text><ellipse cx="174.598" cy="279.242" fill="#F8F8F8" rx="42.598" ry="13.242" style="stroke: #383838; stroke-width: 0.5;"/><text fill="#000000" font-family="Tahoma, sans-serif" font-size="12" lengthAdjust="spacingAndGlyphs" textLength="56" x="146.598" y="282.9842">App/index</text><ellipse cx="1326.5624" cy="354.242" fill="#F8F8F8" rx="39.0624" ry="13.242" style="stroke: #383838; stroke-width: 0.5;"/><text fill="#000000" font-family="Tahoma, sans-serif" font-size="12" lengthAdjust="spacingAndGlyphs" textLength="51" x="1301.0624" y="357.9842">AppState</text><!--entity _Component--><rect fill="#F8F8F8" height="34.4844" rx="2" ry="2" style="stroke: #000000; stroke-width: 0.5;" width="87" x="1283" y="635"/><text fill="#000000" font-family="Tahoma, sans-serif" font-size="12" lengthAdjust="spacingAndGlyphs" textLength="67" x="1293" y="657.0059">Component</text><ellipse cx="1611.433" cy="302.0866" fill="#F8F8F8" rx="68.433" ry="16.0866" style="stroke: #383838; stroke-width: 0.5;"/><text fill="#000000" font-family="Tahoma, sans-serif" font-size="12" lengthAdjust="spacingAndGlyphs" textLength="109" x="1556.933" y="305.8288">ComponentFactory</text><!--entity _CountControls--><rect fill="#F8F8F8" height="34.4844" rx="2" ry="2" style="stroke: #000000; stroke-width: 0.5;" width="103" x="576" y="424"/><text fill="#000000" font-family="Tahoma, sans-serif" font-size="12" lengthAdjust="spacingAndGlyphs" textLength="83" x="586" y="446.0059">CountControls</text><ellipse cx="627.4821" cy="382.9964" fill="#F8F8F8" rx="80.4821" ry="18.4964" style="stroke: #383838; stroke-width: 0.5;"/><text fill="#000000" font-family="Tahoma, sans-serif" font-size="12" font-weight="bold" lengthAdjust="spacingAndGlyphs" textLength="137" x="558.9821" y="386.7386">CountControls/index</text><!--entity _Counter--><rect fill="#F8F8F8" height="34.4844" rx="2" ry="2" style="stroke: #000000; stroke-width: 0.5;" width="65" x="1039" y="942"/><text fill="#000000" font-family="Tahoma, sans-serif" font-size="12" lengthAdjust="spacingAndGlyphs" textLength="45" x="1049" y="964.0059">Counter</text><ellipse cx="1071.4363" cy="904.7873" fill="#F8F8F8" rx="61.9363" ry="14.7873" style="stroke: #383838; stroke-width: 0.5;"/><text fill="#000000" font-family="Tahoma, sans-serif" font-size="12" font-weight="bold" lengthAdjust="spacingAndGlyphs" textLength="93" x="1024.9363" y="908.5294">Counter/index</text><ellipse cx="1071.4845" cy="191.8969" fill="#F8F8F8" rx="59.9845" ry="14.3969" style="stroke: #383838; stroke-width: 0.5;"/><text fill="#000000" font-family="Tahoma, sans-serif" font-size="12" lengthAdjust="spacingAndGlyphs" textLength="88" x="1027.4845" y="195.6391">CurrentWeather</text><ellipse cx="424.3686" cy="205.7737" fill="#F8F8F8" rx="74.3686" ry="17.2737" style="stroke: #383838; stroke-width: 0.5;"/><text fill="#000000" font-family="Tahoma, sans-serif" font-size="12" lengthAdjust="spacingAndGlyphs" textLength="123" x="362.8686" y="209.5159">CurrentWeather/index</text><!--entity _FavouriteLocations--><rect fill="#F8F8F8" height="34.4844" rx="2" ry="2" style="stroke: #000000; stroke-width: 0.5;" width="129" x="1007" y="1064"/><text fill="#000000" font-family="Tahoma, sans-serif" font-size="12" lengthAdjust="spacingAndGlyphs" textLength="109" x="1017" y="1086.0059">FavouriteLocations</text><ellipse cx="1071.4726" cy="1019.7945" fill="#F8F8F8" rx="94.4726" ry="21.2945" style="stroke: #383838; stroke-width: 0.5;"/><text fill="#000000" font-family="Tahoma, sans-serif" font-size="12" font-weight="bold" lengthAdjust="spacingAndGlyphs" textLength="168" x="987.4726" y="1023.5367">FavouriteLocations/index</text><ellipse cx="47.1838" cy="279.242" fill="#F8F8F8" rx="41.1838" ry="13.242" style="stroke: #383838; stroke-width: 0.5;"/><text fill="#000000" font-family="Tahoma, sans-serif" font-size="12" font-weight="bold" lengthAdjust="spacingAndGlyphs" textLength="54" x="20.1838" y="282.9842">js/index</text><ellipse cx="1470.4558" cy="572.242" fill="#F8F8F8" rx="28.4558" ry="13.242" style="stroke: #383838; stroke-width: 0.5;"/><text fill="#000000" font-family="Tahoma, sans-serif" font-size="12" lengthAdjust="spacingAndGlyphs" textLength="36" x="1452.4558" y="575.9842">parser</text><!--entity _PrettyNumber--><rect fill="#F8F8F8" height="34.4844" rx="2" ry="2" style="stroke: #000000; stroke-width: 0.5;" width="96" x="1023.5" y="424"/><text fill="#000000" font-family="Tahoma, sans-serif" font-size="12" lengthAdjust="spacingAndGlyphs" textLength="76" x="1033.5" y="446.0059">PrettyNumber</text><ellipse cx="842.2683" cy="440.7537" fill="#F8F8F8" rx="69.2683" ry="16.2537" style="stroke: #383838; stroke-width: 0.5;"/><text fill="#000000" font-family="Tahoma, sans-serif" font-size="12" lengthAdjust="spacingAndGlyphs" textLength="111" x="786.7683" y="444.4958">PrettyNumber/index</text><!--entity _Router--><rect fill="#F8F8F8" height="34.4844" rx="2" ry="2" style="stroke: #000000; stroke-width: 0.5;" width="63" x="15.5" y="162"/><text fill="#000000" font-family="Tahoma, sans-serif" font-size="12" font-weight="bold" lengthAdjust="spacingAndGlyphs" textLength="43" x="25.5" y="184.0059">Router</text><ellipse cx="46.9056" cy="231.242" fill="#F8F8F8" rx="33.4056" ry="13.242" style="stroke: #383838; stroke-width: 0.5;"/><text fill="#000000" font-family="Tahoma, sans-serif" font-size="12" font-weight="bold" lengthAdjust="spacingAndGlyphs" textLength="43" x="25.4056" y="234.9842">routes</text><!--entity _SearchBar--><rect fill="#F8F8F8" height="34.4844" rx="2" ry="2" style="stroke: #000000; stroke-width: 0.5;" width="79" x="1032" y="262"/><text fill="#000000" font-family="Tahoma, sans-serif" font-size="12" lengthAdjust="spacingAndGlyphs" textLength="59" x="1042" y="284.0059">SearchBar</text><ellipse cx="424.3315" cy="278.8663" fill="#F8F8F8" rx="62.3315" ry="14.8663" style="stroke: #383838; stroke-width: 0.5;"/><text fill="#000000" font-family="Tahoma, sans-serif" font-size="12" lengthAdjust="spacingAndGlyphs" textLength="94" x="377.3315" y="282.6085">SearchBar/index</text><!--entity _SearchHistory--><rect fill="#F8F8F8" height="34.4844" rx="2" ry="2" style="stroke: #000000; stroke-width: 0.5;" width="100" x="1021.5" y="538"/><text fill="#000000" font-family="Tahoma, sans-serif" font-size="12" lengthAdjust="spacingAndGlyphs" textLength="80" x="1031.5" y="560.0059">SearchHistory</text><ellipse cx="1071.6593" cy="498.2319" fill="#F8F8F8" rx="79.1593" ry="18.2319" style="stroke: #383838; stroke-width: 0.5;"/><text fill="#000000" font-family="Tahoma, sans-serif" font-size="12" font-weight="bold" lengthAdjust="spacingAndGlyphs" textLength="134" x="1004.6593" y="501.974">SearchHistory/index</text><ellipse cx="174.3909" cy="179.242" fill="#F8F8F8" rx="41.8909" ry="13.242" style="stroke: #383838; stroke-width: 0.5;"/><text fill="#000000" font-family="Tahoma, sans-serif" font-size="12" font-weight="bold" lengthAdjust="spacingAndGlyphs" textLength="55" x="146.8909" y="182.9842">skycons</text><!--entity _Temperature--><rect fill="#F8F8F8" height="34.4844" rx="2" ry="2" style="stroke: #000000; stroke-width: 0.5;" width="92" x="1025.5" y="834"/><text fill="#000000" font-family="Tahoma, sans-serif" font-size="12" lengthAdjust="spacingAndGlyphs" textLength="72" x="1035.5" y="856.0059">Temperature</text><ellipse cx="842.6025" cy="857.9205" fill="#F8F8F8" rx="67.6025" ry="15.9205" style="stroke: #383838; stroke-width: 0.5;"/><text fill="#000000" font-family="Tahoma, sans-serif" font-size="12" lengthAdjust="spacingAndGlyphs" textLength="107" x="789.1025" y="861.6627">Temperature/index</text><ellipse cx="174.3848" cy="227.242" fill="#F8F8F8" rx="21.3848" ry="13.242" style="stroke: #383838; stroke-width: 0.5;"/><text fill="#000000" font-family="Tahoma, sans-serif" font-size="12" font-weight="bold" lengthAdjust="spacingAndGlyphs" textLength="26" x="161.3848" y="230.9842">test</text><ellipse cx="1326.3757" cy="126.1751" fill="#F8F8F8" rx="71.3757" ry="16.6751" style="stroke: #383838; stroke-width: 0.5;"/><text fill="#000000" font-family="Tahoma, sans-serif" font-size="12" lengthAdjust="spacingAndGlyphs" textLength="116" x="1268.3757" y="129.9173">WeatherDataService</text><!--entity _WeatherForecast--><rect fill="#F8F8F8" height="34.4844" rx="2" ry="2" style="stroke: #000000; stroke-width: 0.5;" width="117" x="569" y="687"/><text fill="#000000" font-family="Tahoma, sans-serif" font-size="12" lengthAdjust="spacingAndGlyphs" textLength="97" x="579" y="709.0059">WeatherForecast</text><ellipse cx="424.281" cy="704.0562" fill="#F8F8F8" rx="78.281" ry="18.0562" style="stroke: #383838; stroke-width: 0.5;"/><text fill="#000000" font-family="Tahoma, sans-serif" font-size="12" lengthAdjust="spacingAndGlyphs" textLength="132" x="358.281" y="707.7984">WeatherForecast/index</text><!--entity _WeatherForecastItem--><rect fill="#F8F8F8" height="34.4844" rx="2" ry="2" style="stroke: #000000; stroke-width: 0.5;" width="144" x="999.5" y="732"/><text fill="#000000" font-family="Tahoma, sans-serif" font-size="12" lengthAdjust="spacingAndGlyphs" textLength="124" x="1009.5" y="754.0059">WeatherForecastItem</text><ellipse cx="842.3584" cy="752.9717" fill="#F8F8F8" rx="90.3584" ry="20.4717" style="stroke: #383838; stroke-width: 0.5;"/><text fill="#000000" font-family="Tahoma, sans-serif" font-size="12" lengthAdjust="spacingAndGlyphs" textLength="159" x="762.8584" y="756.7139">WeatherForecastItem/index</text><!--entity _WeatherItem--><rect fill="#F8F8F8" height="34.4844" rx="2" ry="2" style="stroke: #000000; stroke-width: 0.5;" width="94" x="580.5" y="841"/><text fill="#000000" font-family="Tahoma, sans-serif" font-size="12" lengthAdjust="spacingAndGlyphs" textLength="74" x="590.5" y="863.0059">WeatherItem</text><ellipse cx="627.6652" cy="801.033" fill="#F8F8F8" rx="75.6652" ry="17.533" style="stroke: #383838; stroke-width: 0.5;"/><text fill="#000000" font-family="Tahoma, sans-serif" font-size="12" font-weight="bold" lengthAdjust="spacingAndGlyphs" textLength="126" x="564.6652" y="804.7752">WeatherItem/index</text><!--entity _Wind--><rect fill="#F8F8F8" height="34.4844" rx="2" ry="2" style="stroke: #000000; stroke-width: 0.5;" width="48" x="1047.5" y="1120"/><text fill="#000000" font-family="Tahoma, sans-serif" font-size="12" lengthAdjust="spacingAndGlyphs" textLength="28" x="1057.5" y="1142.0059">Wind</text><ellipse cx="842.5477" cy="1023.242" fill="#F8F8F8" rx="47.5477" ry="13.242" style="stroke: #383838; stroke-width: 0.5;"/><text fill="#000000" font-family="Tahoma, sans-serif" font-size="12" lengthAdjust="spacingAndGlyphs" textLength="63" x="811.0477" y="1026.9842">Wind/index</text><!--link _App to _Component--><path d="M288.561,296.49 C315.342,370.234 430.495,652 626.5,652 C626.5,652 626.5,652 1072.5,652 C1144.05,652 1226.99,652 1277.85,652 " fill="none" id="_App-_Component" style="stroke: #000000; stroke-width: 0.55;"/><polygon fill="#000000" points="1282.97,652,1273.97,648,1277.97,652,1273.97,656,1282.97,652" style="stroke: #000000; stroke-width: 0.55;"/><!--link _App to ComponentFactory--><path d="M290.141,261.958 C300.437,240.419 320.456,203.129 346,178 C449.92,75.77 480.725,8 626.5,8 C626.5,8 626.5,8 1327.5,8 C1479.06,8 1574.94,213.304 1602.36,280.787 " fill="none" id="_App-ComponentFactory" style="stroke: #000000; stroke-width: 0.55;"/><polygon fill="#000000" points="1604.37,285.775,1604.731,275.9328,1602.5081,281.1346,1597.3063,278.9118,1604.37,285.775" style="stroke: #000000; stroke-width: 0.55;"/><!--link _App to CurrentWeather/index--><path d="M302.105,268.85 C324.28,257.369 360.839,238.441 388.052,224.352 " fill="none" id="_App-CurrentWeather/index" style="stroke: #000000; stroke-width: 0.55;"/><polygon fill="#000000" points="392.677,221.958,382.8456,222.5435,388.2367,224.2567,386.5235,229.6479,392.677,221.958" style="stroke: #000000; stroke-width: 0.55;"/><!--link _App to SearchBar/index--><path d="M302.105,279 C316.476,279 336.887,279 356.88,279 " fill="none" id="_App-SearchBar/index" style="stroke: #000000; stroke-width: 0.55;"/><polygon fill="#000000" points="361.95,279,352.95,275,356.95,279,352.95,283,361.95,279" style="stroke: #000000; stroke-width: 0.55;"/><!--link _App to WeatherForecast/index--><path d="M283.191,296.415 C286.192,364.131 300.093,609.111 346,669 C351.987,676.81 360.11,682.926 368.851,687.7 " fill="none" id="_App-WeatherForecast/index" style="stroke: #000000; stroke-width: 0.55;"/><polygon fill="#000000" points="373.762,690.217,367.5761,682.5531,369.3121,687.937,363.9282,689.673,373.762,690.217" style="stroke: #000000; stroke-width: 0.55;"/><!--link App/index to _App--><path d="M217.3,279 C230.294,279 244.201,279 255.652,279 " fill="none" id="App/index-_App" style="stroke: #000000; stroke-width: 0.55;"/><polygon fill="#000000" points="260.728,279,251.728,275,255.728,279,251.728,283,260.728,279" style="stroke: #000000; stroke-width: 0.55;"/><!--link _Component to ComponentFactory--><path d="M1341.53,634.643 C1389.12,575.796 1544.15,384.054 1594.53,321.751 " fill="none" id="_Component-ComponentFactory" style="stroke: #000000; stroke-width: 0.55;"/><polygon fill="#000000" points="1597.69,317.837,1588.9201,322.3191,1594.5457,321.7246,1595.1402,327.3501,1597.69,317.837" style="stroke: #000000; stroke-width: 0.55;"/><!--link _Component to parser--><path d="M1357.96,634.838 C1384.7,619.773 1422.98,598.209 1447.02,584.664 " fill="none" id="_Component-parser" style="stroke: #000000; stroke-width: 0.55;"/><polygon fill="#000000" points="1451.63,582.066,1441.8258,583.0027,1447.2748,584.5221,1445.7555,589.9711,1451.63,582.066" style="stroke: #000000; stroke-width: 0.55;"/><!--link _CountControls to AppState--><path d="M679.031,428.625 C701.298,423.516 727.84,417.892 752,414 C949.155,382.236 1187.27,363.543 1282.81,356.838 " fill="none" id="_CountControls-AppState" style="stroke: #000000; stroke-width: 0.55;"/><polygon fill="#000000" points="1288.07,356.47,1278.8073,353.1231,1283.0828,356.8271,1279.3787,361.1027,1288.07,356.47" style="stroke: #000000; stroke-width: 0.55;"/><!--link _CountControls to _Component--><path d="M663.805,458.036 C725.841,487.365 859.031,547.643 977,583 C1032.79,599.721 1195.92,629.322 1277.66,643.7 " fill="none" id="_CountControls-_Component" style="stroke: #000000; stroke-width: 0.55;"/><polygon fill="#000000" points="1282.93,644.625,1274.7647,639.1179,1278.0065,643.7537,1273.3707,646.9955,1282.93,644.625" style="stroke: #000000; stroke-width: 0.55;"/><!--link _CountControls to PrettyNumber/index--><path d="M679.248,441 C705.653,441 738.425,441 767.589,441 " fill="none" id="_CountControls-PrettyNumber/index" style="stroke: #000000; stroke-width: 0.55;"/><polygon fill="#000000" points="772.612,441,763.612,437,767.612,441,763.612,445,772.612,441" style="stroke: #000000; stroke-width: 0.55;"/><!--link <b>CountControls/index</b> to _CountControls--><path d="M627.5,401.798 C627.5,407.408 627.5,413.018 627.5,418.629 " fill="none" id="&lt;b&gt;CountControls/index&lt;/b&gt;-_CountControls" style="stroke: #000000; stroke-width: 1.0;"/><polygon fill="#000000" points="627.5,423.781,631.5,414.781,627.5,418.781,623.5,414.781,627.5,423.781" style="stroke: #000000; stroke-width: 1.0;"/><!--link _Counter to _Component--><path d="M1104.29,955.527 C1123.8,952.026 1148.35,945.016 1166,931 C1254.67,860.575 1303,726.46 1319.21,673.902 " fill="none" id="_Counter-_Component" style="stroke: #000000; stroke-width: 0.55;"/><polygon fill="#000000" points="1320.68,669.076,1314.232,676.5207,1319.2236,673.8592,1321.8851,678.8509,1320.68,669.076" style="stroke: #000000; stroke-width: 0.55;"/><!--link <b>Counter/index</b> to _Counter--><path d="M1071.5,920.197 C1071.5,925.686 1071.5,931.174 1071.5,936.663 " fill="none" id="&lt;b&gt;Counter/index&lt;/b&gt;-_Counter" style="stroke: #000000; stroke-width: 1.0;"/><polygon fill="#000000" points="1071.5,941.703,1075.5,932.703,1071.5,936.703,1067.5,932.703,1071.5,941.703" style="stroke: #000000; stroke-width: 1.0;"/><!--link CurrentWeather to AppState--><path d="M1094.08,205.528 C1113.06,217.445 1141.41,235.301 1166,251 C1215.26,282.444 1272.78,319.733 1303.5,339.692 " fill="none" id="CurrentWeather-AppState" style="stroke: #000000; stroke-width: 0.55;"/><polygon fill="#000000" points="1307.84,342.508,1302.4784,334.2464,1303.6493,339.7808,1298.1149,340.9516,1307.84,342.508" style="stroke: #000000; stroke-width: 0.55;"/><!--link CurrentWeather to _Component--><path d="M1102.12,204.632 C1122.47,214.623 1148.83,230.33 1166,251 C1266.59,372.077 1309.5,564.502 1321.66,629.621 " fill="none" id="CurrentWeather-_Component" style="stroke: #000000; stroke-width: 0.55;"/><polygon fill="#000000" points="1322.61,634.807,1324.9228,625.2336,1321.7091,629.8888,1317.0538,626.6751,1322.61,634.807" style="stroke: #000000; stroke-width: 0.55;"/><!--link CurrentWeather to ComponentFactory--><path d="M1092.63,178.149 C1118.72,160.716 1166.07,130.79 1210,112 C1287.01,79.07 1320.26,67.83 1398,99 C1492.09,136.72 1568.13,238.159 1597.46,281.697 " fill="none" id="CurrentWeather-ComponentFactory" style="stroke: #000000; stroke-width: 0.55;"/><polygon fill="#000000" points="1600.32,285.973,1598.6467,276.2673,1597.5425,281.8154,1591.9945,280.7113,1600.32,285.973" style="stroke: #000000; stroke-width: 0.55;"/><!--link CurrentWeather to WeatherDataService--><path d="M1094.37,178.59 C1120.69,163.267 1166.77,139.02 1210,129 C1223.05,125.97 1237.16,124.32 1250.88,123.54 " fill="none" id="CurrentWeather-WeatherDataService" style="stroke: #000000; stroke-width: 0.55;"/><polygon fill="#000000" points="1255.91,123.28,1246.726,119.7226,1250.9159,123.5233,1247.1153,127.7131,1255.91,123.28" style="stroke: #000000; stroke-width: 0.55;"/><!--link CurrentWeather/index to CurrentWeather--><path d="M498.862,204.408 C626.072,201.646 885.516,196.015 1006.15,193.397 " fill="none" id="CurrentWeather/index-CurrentWeather" style="stroke: #000000; stroke-width: 0.55;"/><polygon fill="#000000" points="1011.44,193.282,1002.3618,189.4628,1006.441,193.382,1002.5218,197.4612,1011.44,193.282" style="stroke: #000000; stroke-width: 0.55;"/><!--link _FavouriteLocations to _Component--><path d="M1136.45,1070.2894 C1147.23,1066.2411 1157.63,1060.6686 1166,1053 C1282.88,945.937 1315.51,741.98 1323.32,674.384 " fill="none" id="_FavouriteLocations-_Component" style="stroke: #000000; stroke-width: 0.55;"/><polygon fill="#000000" points="1323.92,669.012,1318.945,677.5119,1323.3646,673.9811,1326.8954,678.4007,1323.92,669.012" style="stroke: #000000; stroke-width: 0.55;"/><!--link <b>FavouriteLocations/index</b> to _FavouriteLocations--><path d="M1071.5,1041.579 C1071.5,1047.261 1071.5,1052.943 1071.5,1058.6255 " fill="none" id="&lt;b&gt;FavouriteLocations/index&lt;/b&gt;-_FavouriteLocations" style="stroke: #000000; stroke-width: 1.0;"/><polygon fill="#000000" points="1071.5,1063.8438,1075.5,1054.8438,1071.5,1058.8438,1067.5,1054.8438,1071.5,1063.8438" style="stroke: #000000; stroke-width: 1.0;"/><!--link <b>js/index</b> to App/index--><path d="M88.054,279 C100.3398,279 113.967,279 126.664,279 " fill="none" id="&lt;b&gt;js/index&lt;/b&gt;-App/index" style="stroke: #000000; stroke-width: 1.0;"/><polygon fill="#000000" points="131.665,279,122.665,275,126.665,279,122.665,283,131.665,279" style="stroke: #000000; stroke-width: 1.0;"/><!--link parser to ComponentFactory--><path d="M1478.02,559.339 C1500.16,516.328 1572.63,375.553 1599.95,322.488 " fill="none" id="parser-ComponentFactory" style="stroke: #000000; stroke-width: 0.55;"/><polygon fill="#000000" points="1602.3,317.928,1594.6227,324.0972,1600.0104,322.3729,1601.7346,327.7606,1602.3,317.928" style="stroke: #000000; stroke-width: 0.55;"/><!--link _PrettyNumber to AppState--><path d="M1119.56,447.381 C1146.95,449.377 1181.73,448.911 1211,439 C1251.84,425.17 1290.11,390.817 1310.4,370.267 " fill="none" id="_PrettyNumber-AppState" style="stroke: #000000; stroke-width: 0.55;"/><polygon fill="#000000" points="1313.97,366.598,1304.8263,370.2575,1310.4826,370.181,1310.5591,375.8374,1313.97,366.598" style="stroke: #000000; stroke-width: 0.55;"/><!--link _PrettyNumber to _Component--><path d="M1119.91,449.683 C1135.41,453.92 1152.18,460.097 1166,469 C1233.23,512.326 1288.44,591.989 1312.5,630.3 " fill="none" id="_PrettyNumber-_Component" style="stroke: #000000; stroke-width: 0.55;"/><polygon fill="#000000" points="1315.28,634.762,1313.9168,625.0079,1312.6364,630.518,1307.1264,629.2377,1315.28,634.762" style="stroke: #000000; stroke-width: 0.55;"/><!--link PrettyNumber/index to _PrettyNumber--><path d="M912.224,441 C946.146,441 986.425,441 1017.86,441 " fill="none" id="PrettyNumber/index-_PrettyNumber" style="stroke: #000000; stroke-width: 0.55;"/><polygon fill="#000000" points="1023.22,441,1014.22,437,1018.22,441,1014.22,445,1023.22,441" style="stroke: #000000; stroke-width: 0.55;"/><!--link _SearchBar to AppState--><path d="M1111.2,290.473 C1160.48,305.082 1244.85,330.091 1291.68,343.973 " fill="none" id="_SearchBar-AppState" style="stroke: #000000; stroke-width: 0.55;"/><polygon fill="#000000" points="1296.64,345.445,1289.1395,339.062,1291.8443,344.0303,1286.876,346.7351,1296.64,345.445" style="stroke: #000000; stroke-width: 0.55;"/><!--link _SearchBar to _Component--><path d="M1084.72,296.267 C1102.69,321.711 1137.22,370.824 1166,413 C1220.4,492.709 1283.66,588.428 1311.33,630.444 " fill="none" id="_SearchBar-_Component" style="stroke: #000000; stroke-width: 0.55;"/><polygon fill="#000000" points="1314.21,634.82,1312.596,625.1043,1311.458,630.6455,1305.9168,629.5075,1314.21,634.82" style="stroke: #000000; stroke-width: 0.55;"/><!--link _SearchBar to ComponentFactory--><path d="M1111.19,280.654 C1200.81,284.485 1423.75,294.016 1539,298.943 " fill="none" id="_SearchBar-ComponentFactory" style="stroke: #000000; stroke-width: 0.55;"/><polygon fill="#000000" points="1544.06,299.16,1535.2397,294.7779,1539.0646,298.9457,1534.8968,302.7705,1544.06,299.16" style="stroke: #000000; stroke-width: 0.55;"/><!--link _SearchBar to WeatherDataService--><path d="M1101.03,261.746 C1149.33,232.54 1246.71,173.646 1295.79,143.97 " fill="none" id="_SearchBar-WeatherDataService" style="stroke: #000000; stroke-width: 0.55;"/><polygon fill="#000000" points="1300.1,141.36,1290.3294,142.5989,1295.8227,143.9493,1294.4722,149.4426,1300.1,141.36" style="stroke: #000000; stroke-width: 0.55;"/><!--link SearchBar/index to _SearchBar--><path d="M487.053,279 C616.463,279 914.041,279 1026.43,279 " fill="none" id="SearchBar/index-_SearchBar" style="stroke: #000000; stroke-width: 0.55;"/><polygon fill="#000000" points="1031.64,279,1022.6515,274.9743,1026.64,278.9857,1022.6286,282.9743,1031.64,279" style="stroke: #000000; stroke-width: 0.55;"/><!--link _SearchHistory to _Component--><path d="M1121.53,563.763 C1148.47,569.385 1182.17,577.755 1211,589 C1240.73,600.593 1272.34,618.46 1294.81,632.21 " fill="none" id="_SearchHistory-_Component" style="stroke: #000000; stroke-width: 0.55;"/><polygon fill="#000000" points="1299.17,634.902,1293.5939,626.7837,1294.9093,632.2855,1289.4075,633.6009,1299.17,634.902" style="stroke: #000000; stroke-width: 0.55;"/><!--link <b>SearchHistory/index</b> to _SearchHistory--><path d="M1071.5,516.268 C1071.5,521.721 1071.5,527.173 1071.5,532.625 " fill="none" id="&lt;b&gt;SearchHistory/index&lt;/b&gt;-_SearchHistory" style="stroke: #000000; stroke-width: 1.0;"/><polygon fill="#000000" points="1071.5,537.633,1075.5,528.633,1071.5,532.633,1067.5,528.633,1071.5,537.633" style="stroke: #000000; stroke-width: 1.0;"/><!--link _Temperature to _Component--><path d="M1117.62,848.087 C1146.45,844.36 1183.46,835.94 1211,817 C1264.61,780.128 1300.91,709.329 1316.64,673.663 " fill="none" id="_Temperature-_Component" style="stroke: #000000; stroke-width: 0.55;"/><polygon fill="#000000" points="1318.64,669.078,1311.3826,675.7361,1316.646,673.6632,1318.7188,678.9265,1318.64,669.078" style="stroke: #000000; stroke-width: 0.55;"/><!--link Temperature/index to _Temperature--><path d="M909.463,855.966 C944.751,854.878 987.523,853.559 1020.11,852.554 " fill="none" id="Temperature/index-_Temperature" style="stroke: #000000; stroke-width: 0.55;"/><polygon fill="#000000" points="1025.26,852.395,1016.1388,848.6798,1020.2625,852.5521,1016.3901,856.6758,1025.26,852.395" style="stroke: #000000; stroke-width: 0.55;"/><!--link _WeatherForecast to _Component--><path d="M686.098,702.208 C790.814,698.579 1019.29,688.953 1211,669 C1233.02,666.708 1257.29,663.241 1277.8,660.034 " fill="none" id="_WeatherForecast-_Component" style="stroke: #000000; stroke-width: 0.55;"/><polygon fill="#000000" points="1282.93,659.225,1273.4206,656.6615,1277.9899,659.9964,1274.6549,664.5657,1282.93,659.225" style="stroke: #000000; stroke-width: 0.55;"/><!--link _WeatherForecast to WeatherForecastItem/index--><path d="M686.141,717.26 C712.934,723.424 744.994,730.799 773.013,737.245 " fill="none" id="_WeatherForecast-WeatherForecastItem/index" style="stroke: #000000; stroke-width: 0.55;"/><polygon fill="#000000" points="778.196,738.437,770.3227,732.5199,773.3234,737.3153,768.528,740.316,778.196,738.437" style="stroke: #000000; stroke-width: 0.55;"/><!--link WeatherForecast/index to _WeatherForecast--><path d="M503.212,704 C523.205,704 544.469,704 563.607,704 " fill="none" id="WeatherForecast/index-_WeatherForecast" style="stroke: #000000; stroke-width: 0.55;"/><polygon fill="#000000" points="568.946,704,559.946,700,563.946,704,559.946,708,568.946,704" style="stroke: #000000; stroke-width: 0.55;"/><!--link _WeatherForecastItem to _Component--><path d="M1143.71,735.292 C1165.66,730.069 1189.66,723.322 1211,715 C1240.73,703.407 1272.34,685.54 1294.81,671.79 " fill="none" id="_WeatherForecastItem-_Component" style="stroke: #000000; stroke-width: 0.55;"/><polygon fill="#000000" points="1299.17,669.098,1289.4075,670.3991,1294.9093,671.7145,1293.5939,677.2163,1299.17,669.098" style="stroke: #000000; stroke-width: 0.55;"/><!--link WeatherForecastItem/index to _WeatherForecastItem--><path d="M932.891,751.425 C953.163,751.068 974.512,750.691 994.185,750.345 " fill="none" id="WeatherForecastItem/index-_WeatherForecastItem" style="stroke: #000000; stroke-width: 0.55;"/><polygon fill="#000000" points="999.416,750.253,990.3465,746.4131,994.4168,750.3416,990.4883,754.4118,999.416,750.253" style="stroke: #000000; stroke-width: 0.55;"/><!--link _WeatherItem to _Component--><path d="M674.645,846.929 C697.775,841.631 726.27,835.482 752,831 C934.806,799.155 994.888,848.783 1166,777 C1223.75,752.773 1278.31,701.801 1306.19,672.991 " fill="none" id="_WeatherItem-_Component" style="stroke: #000000; stroke-width: 0.55;"/><polygon fill="#000000" points="1309.78,669.249,1300.658,672.9623,1306.3138,672.8525,1306.4236,678.5083,1309.78,669.249" style="stroke: #000000; stroke-width: 0.55;"/><!--link _WeatherItem to Temperature/index--><path d="M674.718,858 C702.361,858 738.084,858 769.373,858 " fill="none" id="_WeatherItem-Temperature/index" style="stroke: #000000; stroke-width: 0.55;"/><polygon fill="#000000" points="774.756,858,765.756,854,769.756,858,765.756,862,774.756,858" style="stroke: #000000; stroke-width: 0.55;"/><!--link _WeatherItem to Wind/index--><path d="M650.492,875.036 C692.027,907.211 781.422,976.46 821.429,1007.452 " fill="none" id="_WeatherItem-Wind/index" style="stroke: #000000; stroke-width: 0.55;"/><polygon fill="#000000" points="825.601,1010.684,820.9367,1002.0096,821.6486,1007.6215,816.0368,1008.3334,825.601,1010.684" style="stroke: #000000; stroke-width: 0.55;"/><!--link <b>WeatherItem/index</b> to _WeatherItem--><path d="M627.5,818.649 C627.5,824.259 627.5,829.87 627.5,835.48 " fill="none" id="&lt;b&gt;WeatherItem/index&lt;/b&gt;-_WeatherItem" style="stroke: #000000; stroke-width: 1.0;"/><polygon fill="#000000" points="627.5,840.633,631.5,831.633,627.5,835.633,623.5,831.633,627.5,840.633" style="stroke: #000000; stroke-width: 1.0;"/><!--link _Wind to _Component--><path d="M1095.87,1135.414 C1116.55,1132.8646 1146.4,1126.2324 1166,1109 C1301.58,989.776 1321.93,748.795 1324.97,674.393 " fill="none" id="_Wind-_Component" style="stroke: #000000; stroke-width: 0.55;"/><polygon fill="#000000" points="1325.16,669.327,1320.8237,678.1699,1324.9716,674.3234,1328.818,678.4714,1325.16,669.327" style="stroke: #000000; stroke-width: 0.55;"/><!--link _Wind to ComponentFactory--><path d="M1095.66,1133.2895 C1115.39,1129.3988 1143.96,1121.9915 1166,1109 C1190.1,1094.7975 1193.55,1086.861 1211,1065 C1363.6,873.829 1391.15,815.55 1499,596 C1547.42,497.433 1588.59,372.229 1604.01,323.118 " fill="none" id="_Wind-ComponentFactory" style="stroke: #000000; stroke-width: 0.55;"/><polygon fill="#000000" points="1605.59,318.058,1599.0871,325.4548,1604.0983,322.8303,1606.7228,327.8415,1605.59,318.058" style="stroke: #000000; stroke-width: 0.55;"/><!--link Wind/index to _Wind--><path d="M859.49,1035.444 C883.707,1053.777 931.675,1088.1239 977,1109 C997.962,1118.6547 1023.08,1125.9616 1042.01,1130.6862 " fill="none" id="Wind/index-_Wind" style="stroke: #000000; stroke-width: 0.55;"/><polygon fill="#000000" points="1047.17,1131.9501,1039.3755,1125.9297,1042.3127,1130.7642,1037.4781,1133.7014,1047.17,1131.9501" style="stroke: #000000; stroke-width: 0.55;"/><!--link _Router to <b>routes</b>--><!--link _Router to <b>skycons</b>--><!--link <b>skycons</b> to <b>test</b>--><script type="text/plantuml"><![CDATA[
@startuml

scale max 1920 width
left to right direction

skinparam nodesep 22
skinparam ranksep 44
skinparam monochrome true
skinparam shadowing false
skinparam defaultFontName Tahoma
skinparam defaultFontSize 12
skinparam roundCorner 4
skinparam dpi 150
skinparam arrowColor black
skinparam arrowThickness 0.55
skinparam packageTitleAlignment left

skinparam usecase {
  borderThickness 0.5
}

skinparam rectangle {
  borderThickness 0.5
}

skinparam component {
  borderThickness 1
}


rectangle "App" as _App
(App/index)
(AppState)
rectangle "Component" as _Component
(ComponentFactory)
rectangle "CountControls" as _CountControls
(<b>CountControls/index</b>)
rectangle "Counter" as _Counter
(<b>Counter/index</b>)
(CurrentWeather)
(CurrentWeather/index)
rectangle "FavouriteLocations" as _FavouriteLocations
(<b>FavouriteLocations/index</b>)
(<b>js/index</b>)
(parser)
rectangle "PrettyNumber" as _PrettyNumber
(PrettyNumber/index)
rectangle "<b>Router</b>" as _Router
(<b>routes</b>)
rectangle "SearchBar" as _SearchBar
(SearchBar/index)
rectangle "SearchHistory" as _SearchHistory
(<b>SearchHistory/index</b>)
(<b>skycons</b>)
rectangle "Temperature" as _Temperature
(Temperature/index)
(<b>test</b>)
(WeatherDataService)
rectangle "WeatherForecast" as _WeatherForecast
(WeatherForecast/index)
rectangle "WeatherForecastItem" as _WeatherForecastItem
(WeatherForecastItem/index)
rectangle "WeatherItem" as _WeatherItem
(<b>WeatherItem/index</b>)
rectangle "Wind" as _Wind
(Wind/index)


_App ---> _Component
_App ---> (ComponentFactory)
_App --> (CurrentWeather/index)
_App --> (SearchBar/index)
_App --> (WeatherForecast/index)
(App/index) --> _App
_Component --> (ComponentFactory)
_Component --> (parser)
_CountControls ---> (AppState)
_CountControls ---> _Component
_CountControls --> (PrettyNumber/index)
(<b>CountControls/index</b>) -[thickness=1]> _CountControls
_Counter ---> _Component
(<b>Counter/index</b>) -[thickness=1]> _Counter
(CurrentWeather) ---> (AppState)
(CurrentWeather) ---> _Component
(CurrentWeather) ---> (ComponentFactory)
(CurrentWeather) ---> (WeatherDataService)
(CurrentWeather/index) --> (CurrentWeather)
_FavouriteLocations ---> _Component
(<b>FavouriteLocations/index</b>) -[thickness=1]> _FavouriteLocations
(<b>js/index</b>) --[thickness=1]> (App/index)
(parser) --> (ComponentFactory)
_PrettyNumber ---> (AppState)
_PrettyNumber ---> _Component
(PrettyNumber/index) --> _PrettyNumber
_SearchBar ---> (AppState)
_SearchBar ---> _Component
_SearchBar ---> (ComponentFactory)
_SearchBar ---> (WeatherDataService)
(SearchBar/index) --> _SearchBar
_SearchHistory ---> _Component
(<b>SearchHistory/index</b>) -[thickness=1]> _SearchHistory
_Temperature ---> _Component
(Temperature/index) --> _Temperature
_WeatherForecast ---> _Component
_WeatherForecast --> (WeatherForecastItem/index)
(WeatherForecast/index) --> _WeatherForecast
_WeatherForecastItem ---> _Component
(WeatherForecastItem/index) --> _WeatherForecastItem
_WeatherItem ---> _Component
_WeatherItem --> (Temperature/index)
_WeatherItem --> (Wind/index)
(<b>WeatherItem/index</b>) -[thickness=1]> _WeatherItem
_Wind ---> _Component
_Wind ---> (ComponentFactory)
(Wind/index) --> _Wind

@enduml


' View and edit on https://arkit.herokuapp.com
]]></script></g></svg>